<svg xmlns="http://www.w3.org/2000/svg" viewBox="0 0 301.23 301.23"><defs><style>.a{fill:#212121;}.b{fill:#2196f3;}</style></defs><title>myLogo design 2</title><circle class="a" cx="150.61" cy="150.61" r="150.61"/><path class="a" d="M150.61,295.18C70.9,295.18,6,230.33,6,150.61S70.9,6,150.61,6,295.18,70.9,295.18,150.61,230.33,295.18,150.61,295.18Z"/><path class="b" d="M150.61,7A143.57,143.57,0,1,1,7,150.61,143.57,143.57,0,0,1,150.61,7m0-2A145.57,145.57,0,0,0,47.68,253.55,145.57,145.57,0,0,0,253.55,47.68,144.61,144.61,0,0,0,150.61,5h0Z"/><path class="a" d="M181.19,156.4c1.4,2.22-.46,5-1.36,7-0.93,1.86-2.28,3.61-3.29,5.28a23.42,23.42,0,0,1-19.93,6.85c-0.6-.09-1.19-0.23-1.79-0.37a30.9,30.9,0,0,1-19.21-13.23c-6.82,10.5-15.44,20.58-21.44,31.94-1,1.54-1.86,3-2.62,4.18s-1.39,2.14-1.79,2.69c-0.91,1.26-1.89,2.44-1.89,2.44l-0.42.5a75,75,0,0,1-7.47,7.68c-2.94,2.18-4,3.07-5,3.87A96.11,96.11,0,0,1,76,227.07c-15,7.14-31.51,10.39-48.24,10.55,24.27-.83,59-8.79,60.67-38.54a24.84,24.84,0,0,0-1.22-5.26,22.19,22.19,0,0,0-10-12.17c-9.1-4.6-18.77-1.09-26,5.52,0-.32,0-0.63.07-0.93,0.93-8.89,11.89-14.15,20.31-13.46s16.12,5.42,21.5,12.11l0.37,0.46c1.58-2.73,2.77-4.79,3.79-6.68,7.85-16.66,19.38-31.16,33.14-43.91q2.27-2,4.61-4c1.24-.8,2.5-1.61,3.78-2.4,6.42-4,13.51-7.83,23.08-9.89a81.57,81.57,0,0,1,8.42-1.19c1.74-.17,3.71-0.31,5.85-0.41a162.6,162.6,0,0,1,23.06,1c2.72,0.4,6.38.65,7,.79l0.07,0c-9.54,1.69-13.6.44-25.16,1.41,0,0-.05.09-0.07,0.09-0.53,0-1.09.13-1.65,0.18l-0.09,0c-2.95.28-6.35,0.66-10.39,1.18A31.41,31.41,0,0,0,149.27,128a27,27,0,0,0-4.56,4.91,20.74,20.74,0,0,0-1.2,1.88,0.17,0.17,0,0,0,0,.07c-0.08.13-.16,0.27-0.23,0.41s-0.24.45-.35,0.69-0.23.47-.33,0.7a0.81,0.81,0,0,0-.07.15l0,0.06c-5.67,11.36.69,28,13.1,31.56a17.78,17.78,0,0,0,7,.78,20.51,20.51,0,0,0,6.83-1.85A26.62,26.62,0,0,0,181.19,156.4Z"/><path class="a" d="M257.11,113.52c-0.44.31-2.41,1.72-4.58,3.14-3.92,2.55-10.47,3.75-16,4.31-1.86.19-3.6,0.31-5.11,0.38-8.65.15-16.63-1-25.2-2.33a19.35,19.35,0,0,0,15.34-7.55,16.87,16.87,0,0,0,2.9-5.88c0.06-.23.12-0.45,0.18-0.69s0.07-.31.1-0.47a18,18,0,0,0-2.88-13.8c6.78,0.56,11.39,1,16.85,2.8,8.85,2.92,12.41,5.11,14.42,7.55s5.06,6.28,5.21,7.13a0.23,0.23,0,0,1,0,.07s0,0,0,.06-0.07.45-.13,0.84A39.72,39.72,0,0,1,257.11,113.52Z"/><path class="b" d="M258.29,108.12c-0.14-.85-3.21-4.7-5.21-7.13s-5.57-4.63-14.42-7.55c-5.46-1.8-10.07-2.25-16.85-2.8h-0.07l-0.69,0c-7.21-.59-11.34-0.06-14-0.42s-9.81-.54-17.36-4.82h0a64.47,64.47,0,0,1-12.93-8.53c-0.06-.05-0.12-0.18-0.18-0.24L176,76.07c-10.75-9.94-15.55-23.15-14.17-24.14,1-.7,4.27,5.16,13,9.91,5.33,2.91,10.3,4.09,15.91,5.08l0.15,0a34.93,34.93,0,0,0,3.58.51c4,0.29,8,1.27,18,1.6,14.24,0.83,13.53.11,17.56,0.84,5.19,0.94,16.24,3,23.21,12.25,6.78,9,5.74,19.66,5.32,24C258.47,106.83,258.39,107.48,258.29,108.12Z"/><path class="b" d="M257.11,113.52a40.34,40.34,0,0,1-5.37,11.4,41.31,41.31,0,0,1-6.44,7.31,40.66,40.66,0,0,1-5.29,4,37,37,0,0,1-6.84,3.45c-11.61,3.7-24-.37-35.18-4.18-8.77-3.26-16.58-10.73-26.37-11.77a29.08,29.08,0,0,0-6.12-.2,25.33,25.33,0,0,0-16.63,7.8,23.37,23.37,0,0,0-4.89,9.36c-3.51,10.92,3.67,24,14.88,25.09a17.77,17.77,0,0,0,4.34,0,14.93,14.93,0,0,0,7.72-3.22,12.37,12.37,0,0,0,2.74-3.21c4.48-6.16-.46-12.34-5.06-17.19a1.75,1.75,0,0,1,.68-3c5.37-1.32,9.92,1,12.71,5.42a21.28,21.28,0,0,1-1.09,19.95,21.5,21.5,0,0,1-9.22,8.76,32,32,0,0,1-10.1,2.54,26.8,26.8,0,0,1-5.14-.08c-3.14.34-5.88-1.55-8.76-2.83,2.74,1.89,5.89,2,9.1,2.54a26.43,26.43,0,0,0,4.23,0,24,24,0,0,0,14.9-6.59,18.14,18.14,0,0,0,3.5-5c0-2.14,2.32-4.15,1.53-6.23-1.42,3.48-4.26,5.56-7,7.22a35,35,0,0,1-4.33,2.58,20.16,20.16,0,0,1-11.48,1.71c-14.9-1.68-22.2-19.81-15.56-32.45a25,25,0,0,1,3.16-5.22c3.9-4.85,9.22-7.59,15.12-9.11,2-.51,4.34-1.09,6.37-1.39,6.57-1,11.6-.74,18.73-1.65,12.76-1.63,40.65,1.24,45.51,1.5,0,0,1.64,0,5.84-.41,5.57-.56,11.3-1.22,15.22-3.76C254.7,115.25,256.67,113.83,257.11,113.52Z"/><path class="b" d="M136,162.5a2.1,2.1,0,0,1-.42-0.56c-6.82,10.5-15.44,20.58-21.44,31.94-1,1.54-1.86,3-2.62,4.18s-1.39,2.14-1.79,2.69c-0.91,1.26-1.89,2.44-1.89,2.44l-0.42.5a75,75,0,0,1-7.47,7.68c-2.94,2.18-4,3.07-5,3.87A96.11,96.11,0,0,1,76,227.07c16.48-12.82,25.81-23.13,31.38-31,0.8-1.13,1.51-2.21,2.17-3.24,8.24-14,17.55-27.07,25.79-41,0.66,2.68-.63,5.56.33,8.31C135.8,160.91,135.91,161.72,136,162.5Z"/><path class="b" d="M91.79,191.62a30,30,0,0,0-7-9.82c-2.63-2.45-7-6.51-13.34-6.83-5.35-.27-9.33,2.25-12.35,4.17a30.59,30.59,0,0,0-7.78,7.11c0.93-8.89,11.89-14.15,20.31-13.46s16.12,5.42,21.5,12.11Z"/></svg>