<svg id="Layer_1" data-name="Layer 1" xmlns="http://www.w3.org/2000/svg" viewBox="0 0 301.23 301.23"><defs><style>.cls-1{fill:#2187d9;}</style></defs><title>myLogo-transparent</title><path class="cls-1" d="M157.18,44.3A100.85,100.85,0,1,1,56.32,145.15,100.85,100.85,0,0,1,157.18,44.3m0-13A113.89,113.89,0,0,0,76.64,225.69,113.9,113.9,0,0,0,237.72,64.61a113.14,113.14,0,0,0-80.54-33.36Z"/><path class="cls-1" d="M233.64,119.47c-.11-.64-2.42-3.54-3.92-5.37s-4.2-3.49-10.87-5.69c-4.11-1.35-7.59-1.69-12.7-2.11h-.05l-.52,0c-5.43-.44-8.55,0-10.57-.31s-7.39-.41-13.08-3.64h0a48.91,48.91,0,0,1-9.75-6.42s-.09-.14-.14-.18l-.4-.39c-8.1-7.49-11.72-17.44-10.68-18.19.73-.53,3.22,3.89,9.77,7.47a37,37,0,0,0,12,3.83l.11,0c.87.15,1.77.31,2.7.38,3,.22,6,1,13.58,1.21,10.72.62,10.19.08,13.23.63,3.9.71,12.23,2.23,17.48,9.23,5.11,6.8,4.33,14.82,4,18.11C233.78,118.51,233.72,119,233.64,119.47Z"/><path class="cls-1" d="M232.76,123.54a30.49,30.49,0,0,1-4,8.59,31.89,31.89,0,0,1-8.84,8.56,28.49,28.49,0,0,1-5.15,2.6c-8.76,2.79-18.09-.28-26.51-3.15-6.61-2.46-12.5-8.09-19.87-8.87a21.7,21.7,0,0,0-4.62-.15A19.1,19.1,0,0,0,151.19,137a18.25,18.25,0,0,0-2.43,3.67,18,18,0,0,0-1.26,3.39c-2.64,8.22,2.77,18,11.21,18.9a13.84,13.84,0,0,0,3.28,0,11.35,11.35,0,0,0,5.82-2.43,9.48,9.48,0,0,0,2.06-2.42c3.38-4.64-.34-9.3-3.81-13a1.32,1.32,0,0,1,.51-2.27,8.49,8.49,0,0,1,9.58,4.09,16.92,16.92,0,0,1-2.66,17.66,16.33,16.33,0,0,1-5.11,4,23.94,23.94,0,0,1-7.61,1.92,20,20,0,0,1-3.87-.06c-2.37.26-4.44-1.17-6.61-2.14,2.07,1.43,4.44,1.49,6.86,1.92a19.86,19.86,0,0,0,3.18,0,18,18,0,0,0,11.23-5,13.91,13.91,0,0,0,2.64-3.74c0-1.62,1.75-3.13,1.15-4.7a11.65,11.65,0,0,1-5.27,5.44,25.8,25.8,0,0,1-3.27,1.94,15.14,15.14,0,0,1-8.65,1.29c-11.23-1.26-16.73-14.93-11.72-24.45a18.21,18.21,0,0,1,2.38-3.93,20.71,20.71,0,0,1,11.4-6.87c1.48-.38,3.27-.82,4.8-1.05,4.95-.73,8.75-.56,14.12-1.24,9.61-1.23,30.63.93,34.29,1.13,0,0,1.24,0,4.41-.31,4.19-.42,8.51-.92,11.46-2.84C230.94,124.85,232.42,123.78,232.76,123.54Z"/><path class="cls-1" d="M141.51,160.46c0,.14-.32-.42-.32-.42-5.14,7.91-11.64,15.51-16.16,24.07-.72,1.16-1.4,2.25-2,3.14s-1,1.62-1.35,2c-.69.95-1.43,1.84-1.43,1.84l-.31.38a56.08,56.08,0,0,1-5.63,5.79c-2.22,1.65-3,2.31-3.78,2.91a72.8,72.8,0,0,1-14.25,8.92c12.41-9.66,19.44-17.43,23.64-23.39.6-.85,1.14-1.66,1.63-2.44,6.21-10.53,13.23-20.4,19.44-30.93.5,2-.47,4.19.25,6.26C141.34,159.25,141.42,159.87,141.51,160.46Z"/><path class="cls-1" d="M108.17,182.4a22.54,22.54,0,0,0-5.24-7.4c-2-1.85-5.27-4.91-10.06-5.15-4-.2-7,1.7-9.31,3.14a23,23,0,0,0-5.86,5.36c.7-6.69,9-10.66,15.31-10.14s12.15,4.09,16.2,9.13C108.86,179,108.52,180.71,108.17,182.4Z"/></svg>