<svg xmlns="http://www.w3.org/2000/svg" width="301.2300109863281" height="301.2300109863281" style=""><rect id="backgroundrect" width="100%" height="100%" x="0" y="0" fill="none" stroke="none"/>
 <defs>
  <style>.a{fill:#212121;}.b{fill:#2196f3;}</style>
 </defs>
 <title>myLogo design 2</title>
 <g style="" class="currentLayer">
  <title>Layer 1</title>
  <ellipse stroke="#2187d9" ry="141.00001525878906" rx="141.00001525878906" id="svg_10" cy="150.11500549316406" cx="151.11500549316406" opacity="undefined" fill-opacity="0" stroke-width="9" fill="#000000" class="" stroke-opacity="1"/>
  <g stroke="null" id="svg_11" class="" fill-opacity="1" fill="#2187d9">
   <path stroke="null" id="svg_6" d="m240.37215,120.26113c-0.12044,-0.73124 -2.7615,-4.04332 -4.48206,-6.1338s-4.79176,-3.9831 -12.40524,-6.49511c-4.69713,-1.5485 -8.66302,-1.93563 -14.49572,-2.40878l-0.06022,0l-0.59359,0c-6.20262,-0.50757 -9.75557,-0.05162 -12.04392,-0.36132s-8.43935,-0.46455 -14.93446,-4.14655l0,0a55.46225,55.46225 0 0 1 -11.12342,-7.33819c-0.05162,-0.04301 -0.10323,-0.15485 -0.15485,-0.20647l-0.49896,-0.48176c-9.24801,-8.55118 -13.37735,-19.91548 -12.19017,-20.76716c0.86028,-0.6022 3.6734,4.43904 11.18364,8.52537c4.58529,2.50341 8.86088,3.51855 13.68705,4.37022l0.12904,0a30.04958,30.04958 0 0 0 3.0798,0.43874c3.44112,0.24948 6.88224,1.09256 15.48504,1.37645c12.25039,0.71403 11.63959,0.09463 15.10652,0.72264c4.46485,0.80866 13.97095,2.58084 19.9671,10.53843c5.8327,7.74252 4.93801,16.9131 4.57669,20.64672c-0.07743,0.6108 -0.14625,1.16998 -0.23228,1.72056z" class="b" fill="#2187d9"/>
   <path stroke="null" id="svg_7" d="m239.35702,124.90665a34.70369,34.70369 0 0 1 -4.6197,9.80719a35.53817,35.53817 0 0 1 -5.5402,6.28865a34.97898,34.97898 0 0 1 -4.55088,3.44112a31.83036,31.83036 0 0 1 -5.88432,2.96797c-9.98785,3.18304 -20.64672,-0.3183 -30.26465,-3.59597c-7.54466,-2.80451 -14.26344,-9.2308 -22.68558,-10.1255a25.01694,25.01694 0 0 0 -5.26491,-0.17206a21.79089,21.79089 0 0 0 -14.30646,6.71018a20.10474,20.10474 0 0 0 -4.20677,8.05222c-3.01958,9.39426 3.15723,20.64672 12.80097,21.58442a15.28718,15.28718 0 0 0 3.73362,0a12.84398,12.84398 0 0 0 6.64136,-2.7701a10.64166,10.64166 0 0 0 2.35717,-2.7615c3.85405,-5.29932 -0.39573,-10.61585 -4.35302,-14.78821a1.50549,1.50549 0 0 1 0.58499,-2.58084c4.6197,-1.13557 8.53398,0.86028 10.93416,4.66272a18.30676,18.30676 0 0 1 -0.93771,17.16259a18.49602,18.49602 0 0 1 -7.93178,7.53605a27.52896,27.52896 0 0 1 -8.68883,2.18511a23.0555,23.0555 0 0 1 -4.42184,-0.06882c-2.70128,0.2925 -5.05845,-1.33343 -7.53605,-2.43459c2.35717,1.62593 5.06705,1.72056 7.82855,2.18511a22.7372,22.7372 0 0 0 3.63898,0a20.64672,20.64672 0 0 0 12.81817,-5.66925a15.60548,15.60548 0 0 0 3.01098,-4.3014c0,-1.841 1.99585,-3.57016 1.31623,-5.35954c-1.2216,2.99377 -3.66479,4.78316 -6.02196,6.21122a30.1098,30.1098 0 0 1 -3.72501,2.21952a17.34324,17.34324 0 0 1 -9.87601,1.47108c-12.81817,-1.44527 -19.09822,-17.04215 -13.38596,-27.91609a21.507,21.507 0 0 1 2.71848,-4.49066c3.35509,-4.17236 7.93178,-6.52953 13.00743,-7.83715c1.72056,-0.43874 3.73362,-0.93771 5.47998,-1.19579c5.65204,-0.86028 9.97925,-0.63661 16.11304,-1.41946c10.97717,-1.40226 34.97038,1.06675 39.15134,1.29042c0,0 1.41086,0 5.02404,-0.35271c4.79176,-0.48176 9.72116,-1.04954 13.09346,-3.23465c1.87541,-1.21299 3.57016,-2.43459 3.94869,-2.70128z" class="b" fill="#2187d9"/>
   <path stroke="null" id="svg_8" d="m135.16851,167.04316a1.80659,1.80659 0 0 1 -0.36132,-0.48176c-5.86711,9.03294 -13.28272,17.70456 -18.4444,27.47734c-0.86028,1.32483 -1.60012,2.58084 -2.25393,3.59597s-1.19579,1.841 -1.5399,2.31415c-0.78285,1.08395 -1.62593,2.09908 -1.62593,2.09908l-0.36132,0.43014a64.521,64.521 0 0 1 -6.42629,6.60695c-2.52922,1.87541 -3.44112,2.64106 -4.3014,3.32928a82.68151,82.68151 0 0 1 -16.30231,10.17711c14.17741,-11.02879 22.20383,-19.89828 26.99559,-26.66868c0.68822,-0.97212 1.29902,-1.90122 1.86681,-2.78731c7.08871,-12.04392 15.09791,-23.28778 22.18662,-35.27148c0.56778,2.30555 -0.54198,4.78316 0.28389,7.14893c0.11184,0.66242 0.20647,1.35924 0.28389,2.03026z" class="b" fill="#2187d9"/>
   <path stroke="null" id="svg_9" d="m97.13553,192.09451a25.8084,25.8084 0 0 0 -6.02196,-8.44795c-2.26254,-2.10769 -6.02196,-5.60042 -11.47613,-5.87571c-4.6025,-0.23228 -8.02641,1.93563 -10.62446,3.58737a26.31596,26.31596 0 0 0 -6.69298,6.11659c0.80006,-7.64789 10.22873,-12.17296 17.47229,-11.57937s13.86771,4.66272 18.49602,10.41799l-1.15278,5.78108z" class="b" fill="#2187d9"/>
  </g>
 </g>
</svg>