<svg width="24" height="24" xmlns="http://www.w3.org/2000/svg">

 <g>
  <title>Layer 1</title>
  <path fill="#2187d9" id="svg_1" d="m0.455,16.512l10.969,7.314c0.374,0.23 0.774,0.233 1.152,0l10.969,-7.314c0.281,-0.187 0.455,-0.522 0.455,-0.857l0,-7.312c0,-0.335 -0.174,-0.67 -0.455,-0.857l-10.969,-7.313c-0.374,-0.23 -0.774,-0.232 -1.152,0l-10.969,7.313c-0.281,0.187 -0.455,0.522 -0.455,0.857l0,7.312c0,0.335 0.174,0.67 0.455,0.857zm10.514,4.528l-8.076,-5.384l3.603,-2.411l4.473,2.987l0,4.808zm2.062,0l0,-4.808l4.473,-2.987l3.603,2.411l-8.076,5.384zm8.907,-7.314l-2.585,-1.727l2.585,-1.728l0,3.455zm-8.907,-10.767l8.076,5.384l-3.603,2.411l-4.473,-2.987l0,-4.808zm-1.031,6.602l3.643,2.438l-3.643,2.438l-3.643,-2.438l3.643,-2.438zm-1.031,-6.602l0,4.808l-4.473,2.987l-3.603,-2.411l8.076,-5.384zm-8.906,7.314l0,-0.001l2.585,1.728l-2.585,1.728l0,-3.455z"/>
 </g>
</svg>