<svg id="SvgjsSvg1016" width="288" height="288" xmlns="http://www.w3.org/2000/svg" version="1.1" xmlns:xlink="http://www.w3.org/1999/xlink" xmlns:svgjs="http://svgjs.com/svgjs"><defs id="SvgjsDefs1017"></defs><g id="SvgjsG1018"><svg xmlns="http://www.w3.org/2000/svg" enable-background="new 0 0 230.17 230.17" viewBox="0 0 230.17 230.17" width="288" height="288"><path d="M230 49.585c0-.263.181-.519.169-.779l-70.24 67.68 70.156 65.518c.041-.468-.085-.94-.085-1.418V49.585zM149.207 126.901l-28.674 27.588c-1.451 1.396-3.325 2.096-5.2 2.096-1.836 0-3.672-.67-5.113-2.013l-28.596-26.647L11.01 195.989c1.717.617 3.56 1.096 5.49 1.096h197.667c2.866 0 5.554-.873 7.891-2.175L149.207 126.901z" fill="#54b689" class="color000 svgShape"></path><path d="M115.251 138.757L222.447 35.496c-2.427-1.443-5.252-2.411-8.28-2.411H16.5c-3.943 0-7.556 1.531-10.37 3.866L115.251 138.757zM0 52.1v128.484c0 1.475.339 2.897.707 4.256l69.738-67.156L0 52.1z" fill="#54b689" class="color000 svgShape"></path></svg></g></svg>