<svg width="230.17" height="230.17" xmlns="http://www.w3.org/2000/svg">

 <g>
  <title>Layer 1</title>
  <g id="svg_1">
   <path fill="#2187d9" id="svg_2" d="m230,49.585c0,-0.263 0.181,-0.519 0.169,-0.779l-70.24,67.68l70.156,65.518c0.041,-0.468 -0.085,-0.94 -0.085,-1.418l0,-131.001z"/>
   <path fill="#2187d9" id="svg_3" d="m149.207,126.901l-28.674,27.588c-1.451,1.396 -3.325,2.096 -5.2,2.096c-1.836,0 -3.672,-0.67 -5.113,-2.013l-28.596,-26.647l-70.614,68.064c1.717,0.617 3.56,1.096 5.49,1.096l197.667,0c2.866,0 5.554,-0.873 7.891,-2.175l-72.851,-68.009z"/>
   <path fill="#2187d9" id="svg_4" d="m115.251,138.757l107.196,-103.261c-2.427,-1.443 -5.252,-2.411 -8.28,-2.411l-197.667,0c-3.943,0 -7.556,1.531 -10.37,3.866l109.121,101.806z"/>
   <path fill="#2187d9" id="svg_5" d="m0,52.1l0,128.484c0,1.475 0.339,2.897 0.707,4.256l69.738,-67.156l-70.445,-65.584z"/>
  </g>
  <g id="svg_6"/>
  <g id="svg_7"/>
  <g id="svg_8"/>
  <g id="svg_9"/>
  <g id="svg_10"/>
  <g id="svg_11"/>
  <g id="svg_12"/>
  <g id="svg_13"/>
  <g id="svg_14"/>
  <g id="svg_15"/>
  <g id="svg_16"/>
  <g id="svg_17"/>
  <g id="svg_18"/>
  <g id="svg_19"/>
  <g id="svg_20"/>
 </g>
</svg>