<svg width="475.084" height="475.084" xmlns="http://www.w3.org/2000/svg">

 <g>
  <title>Layer 1</title>
  <g id="svg_1">
   <g id="svg_2">
    <path fill="#2187d9" id="svg_3" d="m436.244,146.752c5.14,-15.422 7.713,-31.409 7.713,-47.967c0,-22.08 -4.859,-42.828 -14.564,-62.242c-20.362,0 -38.349,3.715 -53.961,11.136c-15.604,7.423 -33.4,18.938 -53.379,34.545c-25.122,-6.09 -51.777,-9.135 -79.941,-9.135c-30.837,0 -60.245,3.333 -88.223,9.994c-20.364,-15.99 -38.351,-27.74 -53.959,-35.26c-15.608,-7.52 -33.689,-11.279 -54.247,-11.279c-9.707,19.414 -14.56,40.163 -14.56,62.242c0,16.751 2.568,32.93 7.708,48.535c-25.889,30.266 -38.831,67.951 -38.831,113.062c0,39.595 5.898,71.092 17.701,94.507c6.283,12.367 14.465,23.312 24.554,32.832c10.085,9.514 21.601,17.228 34.545,23.13c12.946,5.896 25.981,10.801 39.116,14.699c13.134,3.9 27.646,6.758 43.54,8.559c15.893,1.816 29.93,3.004 42.111,3.579c12.181,0.564 25.693,0.853 40.544,0.853c17.508,0 33.396,-0.432 47.678,-1.283c14.277,-0.855 30.594,-2.953 48.964,-6.276c18.367,-3.333 34.547,-7.857 48.54,-13.565c13.99,-5.708 27.412,-13.895 40.259,-24.551c12.847,-10.663 22.884,-23.318 30.121,-37.976c11.604,-23.603 17.412,-55.107 17.412,-94.507c-0.007,-45.302 -12.95,-83.178 -38.841,-113.632zm-34.249,207.703c-6.092,12.471 -13.802,22.265 -23.127,29.41c-9.329,7.139 -20.938,12.847 -34.831,17.135c-13.9,4.281 -27.217,7.087 -39.971,8.415c-12.758,1.334 -26.933,1.998 -42.545,1.998l-47.966,0c-15.607,0 -29.79,-0.664 -42.541,-1.998c-12.752,-1.328 -26.075,-4.134 -39.971,-8.415c-13.891,-4.288 -25.5,-9.996 -34.829,-17.135c-9.329,-7.146 -17.037,-16.939 -23.128,-29.41c-6.09,-12.471 -9.136,-27.076 -9.136,-43.824c0,-22.847 6.567,-42.264 19.702,-58.245c13.134,-15.99 30.929,-23.982 53.387,-23.982c8.188,0 26.746,1.997 55.677,5.995c13.513,2.093 28.456,3.14 44.823,3.14c16.372,0 31.313,-1.044 44.824,-3.14c29.317,-3.999 47.869,-5.995 55.678,-5.995c22.457,0 40.252,7.996 53.386,23.982c13.135,15.988 19.698,35.398 19.698,58.245c0,16.751 -3.046,31.364 -9.13,43.824z"/>
    <path fill="#2187d9" id="svg_4" d="m166.875,265.52c-5.806,-6.475 -12.703,-9.712 -20.699,-9.712c-7.998,0 -14.896,3.241 -20.701,9.712c-5.802,6.468 -9.897,13.703 -12.275,21.689c-2.383,8.002 -3.571,15.804 -3.571,23.422c0,7.61 1.191,15.413 3.571,23.414c2.375,7.991 6.468,15.222 12.275,21.689c5.808,6.475 12.703,9.713 20.701,9.713c7.996,0 14.896,-3.244 20.699,-9.713c5.804,-6.468 9.897,-13.698 12.275,-21.689c2.38,-8.001 3.571,-15.804 3.571,-23.414c0,-7.611 -1.188,-15.42 -3.571,-23.422c-2.379,-7.983 -6.468,-15.215 -12.275,-21.689z"/>
    <path fill="#2187d9" id="svg_5" d="m349.601,265.52c-5.804,-6.475 -12.703,-9.712 -20.697,-9.712c-7.991,0 -14.894,3.241 -20.701,9.712c-5.804,6.468 -9.896,13.703 -12.271,21.689c-2.385,8.002 -3.576,15.804 -3.576,23.422c0,7.61 1.191,15.413 3.576,23.414c2.375,7.991 6.468,15.222 12.271,21.689c5.808,6.475 12.71,9.713 20.701,9.713c7.994,0 14.894,-3.244 20.697,-9.713c5.801,-6.468 9.896,-13.698 12.278,-21.689c2.379,-8.001 3.569,-15.804 3.569,-23.414c0,-7.611 -1.19,-15.42 -3.569,-23.422c-2.381,-7.983 -6.477,-15.215 -12.278,-21.689z"/>
   </g>
  </g>
  <g id="svg_6"/>
  <g id="svg_7"/>
  <g id="svg_8"/>
  <g id="svg_9"/>
  <g id="svg_10"/>
  <g id="svg_11"/>
  <g id="svg_12"/>
  <g id="svg_13"/>
  <g id="svg_14"/>
  <g id="svg_15"/>
  <g id="svg_16"/>
  <g id="svg_17"/>
  <g id="svg_18"/>
  <g id="svg_19"/>
  <g id="svg_20"/>
 </g>
</svg>