<svg width="288" height="288" xmlns="http://www.w3.org/2000/svg">

 <g>
  <title>Layer 1</title>
  <g id="SvgjsG1030">
   <svg fill="#2187d9" id="svg_1" viewBox="0 0 512 512" height="288" width="288">
    <path id="svg_2" class="color000 svgShape" fill="#2187d9" d="m465.183,108.409c5.291,-6.492 8.471,-14.771 8.471,-23.779c0,-20.79 -16.914,-37.704 -37.704,-37.704c-8.351,0 -16.074,2.733 -22.329,7.347c-44.839,-35.04 -100.552,-54.273 -157.621,-54.273c-46.153,0 -91.383,12.417 -130.8,35.908c-3.558,2.12 -4.723,6.724 -2.603,10.282s6.723,4.724 10.282,2.604c17.236,-10.272 35.655,-18.29 54.795,-23.936c-13.815,10.638 -26.693,24.539 -38.195,41.463c-9.826,14.458 -18.407,30.76 -25.61,48.45c-13.345,-8.752 -25.86,-18.847 -37.321,-30.172c6.512,-6.418 13.428,-12.514 20.733,-18.25c3.258,-2.558 3.825,-7.272 1.267,-10.53s-7.273,-3.824 -10.53,-1.267c-29.851,23.44 -54.534,53.742 -71.382,87.63c-17.675,35.547 -26.636,73.841 -26.636,113.818c0,53.384 16.172,104.271 46.821,147.596c-5.293,6.493 -8.475,14.772 -8.475,23.784c0,20.79 16.914,37.704 37.704,37.704c8.356,0 16.083,-2.737 22.341,-7.355c44.826,35.039 100.535,54.271 157.609,54.271c68.379,0 132.666,-26.629 181.019,-74.981c48.352,-48.353 74.981,-112.64 74.981,-181.019c0,-53.382 -16.171,-104.268 -46.817,-147.591zm11.057,155.091l20.632,0c-1.732,57.023 -23.187,110.644 -61.109,153.008c-6.094,-6.01 -12.482,-11.716 -19.099,-17.051c1.604,-4.183 2.492,-8.718 2.492,-13.459c0,-13.147 -6.768,-24.738 -16.999,-31.488c7.418,-28.908 11.442,-59.46 11.992,-91.01l28.81,0c4.142,0 7.5,-3.358 7.5,-7.5s-3.358,-7.5 -7.5,-7.5l-28.813,0c-0.747,-42.51 -7.84,-83.273 -20.531,-119.357c6.863,-4.384 13.533,-9.11 19.992,-14.164c6.257,4.619 13.984,7.355 22.341,7.355c6.357,0 12.347,-1.588 17.607,-4.377c27.01,38.546 41.891,83.393 43.318,130.543l-20.633,0c-4.142,0 -7.5,3.358 -7.5,7.5s3.358,7.5 7.5,7.5zm-377.851,133.53c-6.257,-4.618 -13.984,-7.354 -22.339,-7.354c-6.355,0 -12.343,1.587 -17.601,4.375c-27.014,-38.548 -41.896,-83.398 -43.324,-130.551l53.205,0c3.107,15.332 15.544,27.315 31.106,29.749c2.844,31.742 9.333,62.109 18.994,89.623c-6.886,4.385 -13.578,9.105 -20.041,14.158zm120.221,-230.502c2.041,16.058 14.211,28.997 29.89,32.174l0,49.798l-106.265,0c-2.883,-14.227 -13.802,-25.568 -27.796,-29.073c2.663,-29.184 8.509,-57.085 17.141,-82.457c26.887,14.968 56.386,25.061 87.03,29.558zm162.843,181.766c-11.516,0 -21.837,5.195 -28.758,13.359c-28.384,-11.605 -58.327,-17.91 -89.195,-18.788l0,-79.365l135.646,0c-0.535,29.601 -4.243,58.255 -11.045,85.394c-2.16,-0.387 -4.379,-0.6 -6.648,-0.6zm-117.953,-99.794l0,-49.798c15.68,-3.178 27.849,-16.117 29.89,-32.175c30.705,-4.494 60.162,-14.519 87.09,-29.534c11.507,33.767 17.942,71.801 18.664,111.506l-135.644,0l0,0.001zm28.784,-96.972c-3.803,-13.479 -14.921,-23.921 -28.784,-26.73l0,-109.461c34.753,3.046 67.416,27.212 92.663,68.837c7.211,11.89 13.573,24.815 19.052,38.564c-25.583,14.593 -53.645,24.369 -82.931,28.79zm-36.284,-12.482c12.519,0 22.704,10.185 22.704,22.704s-10.185,22.704 -22.704,22.704s-22.704,-10.185 -22.704,-22.704s10.185,-22.704 22.704,-22.704zm-150.717,94.25c12.519,0 22.704,10.185 22.704,22.704s-10.185,22.704 -22.704,22.704c-12.515,0 -22.696,-10.178 -22.703,-22.691c0,-0.004 0.001,-0.008 0.001,-0.013s-0.001,-0.009 -0.001,-0.013c0.006,-12.513 10.188,-22.691 22.703,-22.691zm9.157,59.277c13.994,-3.505 24.912,-14.846 27.796,-29.073l106.264,0l0,79.375c-41.101,1.212 -81.263,12.361 -116.916,32.166c-8.633,-25.375 -14.481,-53.28 -17.144,-82.468zm134.06,65.308l0,138.771c-31.821,-2.84 -62.33,-23.671 -86.614,-59.404c-9.667,-14.225 -18.064,-30.375 -25.055,-47.964c33.94,-19.287 72.343,-30.171 111.669,-31.403zm15,-0.006c28.328,0.856 55.818,6.568 81.919,17.022c-1.084,3.511 -1.67,7.238 -1.67,11.1c0,13.563 7.201,25.471 17.977,32.115c-25.564,47.105 -60.765,75.225 -98.226,78.547l0,-138.784zm95.249,28.123c0,-12.519 10.185,-22.704 22.704,-22.704s22.704,10.185 22.704,22.704s-10.185,22.704 -22.704,22.704s-22.704,-10.185 -22.704,-22.704zm99.905,-301.368c0,12.519 -10.185,22.704 -22.704,22.704s-22.704,-10.185 -22.704,-22.704s10.185,-22.704 22.704,-22.704s22.704,10.185 22.704,22.704zm-55.133,-19.203c-3.346,5.628 -5.275,12.193 -5.275,19.203c0,7.007 1.928,13.57 5.271,19.197c-4.983,3.863 -10.096,7.525 -15.335,10.969c-5.567,-13.641 -11.978,-26.502 -19.195,-38.4c-13.01,-21.45 -27.963,-38.7 -44.248,-51.345c28.391,8.452 55.168,22.095 78.782,40.376zm-241.635,9.325c24.284,-35.732 54.793,-56.564 86.614,-59.404l0,109.45c-13.861,2.809 -24.978,13.248 -28.782,26.725c-29.234,-4.426 -57.34,-14.273 -82.882,-28.819c6.99,-17.584 15.385,-33.731 25.05,-47.952zm-85.683,20.709c12.915,12.734 27.086,24.003 42.231,33.658c-9.664,27.516 -16.153,57.886 -18.998,89.632c-15.562,2.433 -28,14.417 -31.106,29.749l-53.21,0c1.745,-57.304 23.438,-111.046 61.083,-153.039zm-0.153,354.623c-12.519,0 -22.704,-10.185 -22.704,-22.704s10.185,-22.704 22.704,-22.704s22.704,10.185 22.704,22.704s-10.185,22.704 -22.704,22.704zm32.436,-3.513c3.342,-5.626 5.268,-12.187 5.268,-19.191c0,-7.005 -1.927,-13.567 -5.269,-19.193c4.99,-3.866 10.115,-7.536 15.374,-10.982c7.206,17.7 15.79,34.01 25.621,48.475c11.462,16.866 24.292,30.729 38.053,41.352c-28.494,-8.447 -55.363,-22.12 -79.047,-40.461zm267.493,-23.271c1.788,0.262 3.615,0.402 5.474,0.402c10.624,0 20.228,-4.423 27.088,-11.517c5.838,4.775 11.484,9.855 16.882,15.191c-28.747,28.428 -63.388,48.758 -101.157,59.853c19.59,-15.064 37.22,-36.674 51.713,-63.929z"/>
   </svg>
  </g>
 </g>
</svg>